<svg width="160" height="65" viewBox="0 0 160 65" fill="none" xmlns="http://www.w3.org/2000/svg">
<path d="M39.28 23.54C39.28 26.78 38.02 29.72 35.92 31.82C37.54 33.56 39.28 36.02 39.28 41.72V50.48C39.28 51.02 38.86 51.5 38.26 51.5H32.68C32.14 51.5 31.66 51.02 31.66 50.48V40.64C31.6 39.08 31.18 37.88 30.4 37.04H30.34C29.98 36.68 29.44 36.44 28.9 36.44C28.6 36.44 28.3 36.5 28 36.68C26.8 37.4 25.66 38.24 24.76 39.08C22.72 41.06 21.52 43.82 21.52 46.64V50.48C21.52 51.02 21.1 51.5 20.56 51.5H15.1C14.44 51.5 13.9 50.96 13.9 50.36V12.74C13.9 12.14 14.38 11.72 14.92 11.72H27.46C28.96 11.72 30.4 12.02 31.72 12.5C33.28 13.1 34.66 14 35.8 15.2C37.96 17.3 39.28 20.3 39.28 23.54ZM31.66 23.54C31.66 21.2 29.68 19.34 27.28 19.34H22.66C22.06 19.34 21.52 19.82 21.52 20.48V31.4C21.52 31.88 21.94 32.18 22.36 32.18C22.54 32.18 22.72 32.18 22.84 32.06C25.54 30.02 28.06 28.88 30.46 26.54C31.24 25.82 31.66 24.74 31.66 23.54ZM50.8169 50.36C50.8169 50.96 50.2769 51.5 49.6769 51.5H44.3369C43.6769 51.5 43.1969 50.96 43.1969 50.36V12.86C43.1969 12.2 43.6769 11.72 44.3369 11.72H49.6769C50.2769 11.72 50.8169 12.2 50.8169 12.86V50.36ZM55.8798 11.72H78.9798C79.5798 11.72 80.1198 12.2 80.1198 12.86V18.2C80.1198 18.8 79.5798 19.34 78.9798 19.34H72.0198C71.5998 19.34 71.2398 19.64 71.2398 20.06V50.36C71.2398 50.96 70.6998 51.5 70.0998 51.5H64.7598C64.1598 51.5 63.6198 50.96 63.6198 50.36V20.06C63.6198 19.64 63.2598 19.34 62.8398 19.34H55.8798C55.2798 19.34 54.7398 18.8 54.7398 18.2V12.86C54.7398 12.2 55.2798 11.72 55.8798 11.72ZM96.5402 13.22L104.64 49.34C104.64 49.46 104.7 49.58 104.7 49.7C104.7 50.66 103.92 51.5 102.9 51.5H79.8602C78.8402 51.5 78.0602 50.66 78.0602 49.7C78.0602 49.58 78.1202 49.46 78.1202 49.34L86.2202 13.22C86.4002 12.32 87.1802 11.72 88.0802 11.72H94.7402C95.5802 11.72 96.3602 12.32 96.5402 13.22ZM91.2002 25.82L87.3602 42.98V43.16C87.3602 43.58 87.6602 43.88 88.0802 43.88H94.7402C95.1002 43.88 95.4602 43.52 95.4602 43.1V42.98L91.6202 25.82C91.6202 25.7 91.5002 25.7 91.3802 25.7C91.3202 25.7 91.2002 25.7 91.2002 25.82ZM130.922 11.72H136.262C136.922 11.72 137.402 12.2 137.402 12.86V50.36C137.402 50.96 136.922 51.5 136.262 51.5H130.922C130.322 51.5 129.782 50.96 129.782 50.36V28.16C129.782 27.98 129.662 27.86 129.482 27.86C129.422 27.86 129.362 27.92 129.302 27.98L123.602 37.4C123.422 37.7 123.062 37.88 122.702 37.88C122.402 37.88 122.042 37.7 121.862 37.4L116.102 27.98C116.042 27.92 115.982 27.86 115.922 27.86C115.742 27.86 115.622 27.98 115.622 28.16V50.36C115.622 50.96 115.142 51.5 114.482 51.5H109.142C108.542 51.5 108.002 50.96 108.002 50.36V12.86C108.002 12.2 108.542 11.72 109.142 11.72H114.482C114.902 11.72 115.202 11.9 115.442 12.2L122.402 23.66C122.462 23.78 122.582 23.84 122.702 23.84C122.822 23.84 123.002 23.78 123.062 23.66L130.022 12.2C130.202 11.9 130.562 11.72 130.922 11.72Z" fill="white"/>
<path d="M149.743 47.3C149.743 49.64 147.823 51.5 145.483 51.5C143.143 51.5 141.283 49.64 141.283 47.3C141.283 44.96 143.143 43.04 145.483 43.04C147.823 43.04 149.743 44.96 149.743 47.3Z" fill="#FF5943"/>
</svg>
